<svg width="800" height="800" viewBox="0 0 800 800" fill="none" xmlns="http://www.w3.org/2000/svg">
<g clip-path="url(#clip0_126_3)">
<rect width="800" height="800" rx="400" fill="#0A82AE"/>
<path d="M247.5 586.698L528.198 193L1019.93 684.735L682.735 1021.93L247.5 586.698Z" fill="black" fill-opacity="0.1"/>
<rect x="250" y="200" width="300" height="400" rx="20" fill="#F0EBEB"/>
<rect x="270" y="200" width="20" height="400" fill="#1D2A32"/>
<path fill-rule="evenodd" clip-rule="evenodd" d="M514 200H464V300H464.355L489.178 275.178L514 300V200Z" fill="#1D2A32"/>
<path d="M401 394.2L449.2 459.6C450.133 460.8 451.8 461.867 454.2 462.8C456.6 463.733 459.133 464.467 461.8 465C464.6 465.533 466.8 465.867 468.4 466C468.8 468.533 468.467 470.867 467.4 473C463.8 472.733 459.733 472.467 455.2 472.2C450.8 472.067 446.733 472 443 472C440.467 472 437.267 472.067 433.4 472.2C429.667 472.333 425.867 472.467 422 472.6C418.267 472.733 415.133 472.867 412.6 473C412.2 470.467 412.333 468.133 413 466C415.8 465.733 418.533 465.333 421.2 464.8C423.867 464.267 426.467 463.333 429 462L390.6 410H377.4V462L392.8 466C393.2 468.533 392.867 470.867 391.8 473C388.2 472.733 384.133 472.467 379.6 472.2C375.2 472.067 371.133 472 367.4 472C363.667 472 359.067 472.067 353.6 472.2C348.267 472.467 343.733 472.733 340 473C339.6 470.467 339.733 468.133 340.4 466C343.067 465.6 345.733 465.067 348.4 464.4C351.067 463.733 353.733 462.933 356.4 462V342L341 338C340.6 335.467 340.933 333.133 342 331C345.6 331.133 349.6 331.333 354 331.6C358.533 331.867 362.667 332 366.4 332C370.267 332 374.867 331.867 380.2 331.6C385.533 331.333 390.067 331.133 393.8 331C394.2 333.533 394.067 335.867 393.4 338C390.467 338.267 387.667 338.733 385 339.4C382.333 340.067 379.8 340.933 377.4 342V399H385L431.4 342C429.267 340.8 426.867 339.933 424.2 339.4C421.667 338.867 418.933 338.4 416 338C415.6 335.467 415.933 333.133 417 331C420.6 331.133 424.667 331.333 429.2 331.6C433.867 331.867 438.067 332 441.8 332C445.667 332 449.133 331.867 452.2 331.6C455.4 331.333 458.867 331.133 462.6 331C463 333.533 462.867 335.867 462.2 338C460.733 338.133 458.667 338.467 456 339C453.467 339.533 450.867 340.4 448.2 341.6C445.533 342.8 443.267 344.4 441.4 346.4L401 394.2Z" fill="#1D2A32"/>
</g>
<defs>
<clipPath id="clip0_126_3">
<rect width="800" height="800" rx="400" fill="white"/>
</clipPath>
</defs>
</svg>
